<svg xmlns="http://www.w3.org/2000/svg" viewBox="0 0 500 500" width="500" height="500">
  <defs>
    <radialGradient id="bg" cx="50%" cy="38%" r="78%"><stop offset="0%" stop-color="#241c1e"/><stop offset="100%" stop-color="#0a0909"/></radialGradient>
    <linearGradient id="redg" x1="0" y1="0" x2="0" y2="1"><stop offset="0%" stop-color="#ff6a4d"/><stop offset="42%" stop-color="#e0281a"/><stop offset="100%" stop-color="#7c1207"/></linearGradient>
  </defs>
  <rect width="500" height="500" rx="96" fill="url(#bg)"/>
  <rect x="12" y="12" width="476" height="476" rx="86" fill="none" stroke="#caa64a" stroke-opacity="0.5" stroke-width="4"/>

  <g transform="translate(258,60) scale(1.5) rotate(-6)">
    <rect x="-64" y="205" width="128" height="60" rx="20" fill="#efe7d6"/>
    <rect x="-64" y="205" width="128" height="16" rx="8" fill="#000000" opacity="0.12"/>
    <path d="M-80,215 C-104,120 -86,20 0,20 C86,20 104,120 80,215 Z" fill="url(#redg)"/>
    <path d="M-80,138 C-116,138 -118,214 -84,216 C-72,196 -72,160 -80,138 Z" fill="url(#redg)"/>
    <path d="M-80,138 C-108,140 -112,196 -90,210 C-96,180 -94,158 -80,138 Z" fill="#000000" opacity="0.14"/>
    <ellipse cx="-24" cy="80" rx="34" ry="46" fill="#ffb59f" opacity="0.45"/>
    <path d="M-36,60 C-8,104 8,104 36,60" fill="none" stroke="#7c1207" stroke-width="7" stroke-linecap="round" opacity="0.75"/>
    <path d="M0,116 C0,150 0,180 0,205" stroke="#7c1207" stroke-width="4" opacity="0.5" stroke-dasharray="3 9" stroke-linecap="round"/>
  </g>
</svg>
